<svg xmlns="http://www.w3.org/2000/svg" width="64" height="64" viewBox="0 0 64 64" role="img" aria-label="Seismic wave simulator favicon">
  <defs>
    <clipPath id="earth-disc">
      <circle cx="32" cy="32" r="24"/>
    </clipPath>
    <linearGradient id="surface-glow" x1="12" x2="52" y1="12" y2="52" gradientUnits="userSpaceOnUse">
      <stop offset="0" stop-color="#fef3c7"/>
      <stop offset=".46" stop-color="#f97316"/>
      <stop offset="1" stop-color="#7c2d12"/>
    </linearGradient>
  </defs>
  <rect width="64" height="64" rx="14" fill="#111827"/>
  <circle cx="32" cy="32" r="27" fill="#0f172a" stroke="#334155" stroke-width="2"/>
  <g clip-path="url(#earth-disc)">
    <circle cx="32" cy="32" r="24" fill="url(#surface-glow)"/>
    <circle cx="32" cy="32" r="20" fill="#c2410c"/>
    <circle cx="32" cy="32" r="13.5" fill="#facc15"/>
    <circle cx="32" cy="32" r="6.5" fill="#fef08a"/>
    <path d="M8 32h48" stroke="#451a03" stroke-width="1.1" opacity=".35"/>
    <path d="M32 8v48" stroke="#451a03" stroke-width="1.1" opacity=".25"/>
  </g>
  <circle cx="32" cy="32" r="24" fill="none" stroke="#84cc16" stroke-width="3"/>
  <path d="M18 18c7 5 12 12 14 20 2-8 7-15 14-20" fill="none" stroke="#38bdf8" stroke-width="4.5" stroke-linecap="round" stroke-linejoin="round"/>
  <path d="M17 46c5-7 9-14 15-14s10 7 15 14" fill="none" stroke="#ef4444" stroke-width="4.5" stroke-linecap="round" stroke-linejoin="round"/>
  <circle cx="18" cy="18" r="4.2" fill="#f8fafc" stroke="#f97316" stroke-width="2"/>
  <circle cx="46" cy="18" r="2.8" fill="#38bdf8"/>
  <circle cx="47" cy="46" r="2.8" fill="#ef4444"/>
</svg>
